<svg width="365" height="365" viewBox="0 0 365 365" fill="none" xmlns="http://www.w3.org/2000/svg">
<path d="M0 0C47.9325 5.71589e-07 95.3956 9.44101 139.679 27.784C183.963 46.1269 224.201 73.0127 258.094 106.906C291.987 140.799 318.873 181.037 337.216 225.321C355.559 269.604 365 317.068 365 365L0 365V0Z" fill="#5B21B6"/>
<path d="M263 412C263 374.074 247.934 337.701 221.116 310.884C194.299 284.066 157.926 269 120 269V412L263 412Z" fill="#4C1D95"/>
<mask id="path-3-inside-1_0_995" fill="white">
<path d="M104 569C122.779 569 141.374 565.301 158.724 558.115C176.073 550.928 191.838 540.395 205.116 527.116C218.395 513.837 228.928 498.073 236.115 480.724C243.301 463.374 247 444.779 247 426C247 407.221 243.301 388.626 236.115 371.276C228.928 353.927 218.395 338.162 205.116 324.884C191.837 311.605 176.073 301.072 158.724 293.885C141.374 286.699 122.779 283 104 283L104 426V569Z"/>
</mask>
<path d="M104 569C122.779 569 141.374 565.301 158.724 558.115C176.073 550.928 191.838 540.395 205.116 527.116C218.395 513.837 228.928 498.073 236.115 480.724C243.301 463.374 247 444.779 247 426C247 407.221 243.301 388.626 236.115 371.276C228.928 353.927 218.395 338.162 205.116 324.884C191.837 311.605 176.073 301.072 158.724 293.885C141.374 286.699 122.779 283 104 283L104 426V569Z" stroke="#6D28D9" stroke-width="10" mask="url(#path-3-inside-1_0_995)"/>
<mask id="path-4-inside-2_0_995" fill="white">
<path d="M104 668C151.863 668 198.651 653.807 238.448 627.216C278.245 600.624 309.262 562.829 327.579 518.609C345.895 474.39 350.688 425.732 341.35 378.788C332.012 331.845 308.964 288.724 275.12 254.88C241.276 221.036 198.155 197.988 151.212 188.65C104.268 179.312 55.6103 184.105 11.3906 202.421C-32.8291 220.738 -70.6244 251.755 -97.2157 291.552C-123.807 331.349 -138 378.137 -138 426L104 426L104 668Z"/>
</mask>
<path d="M104 668C151.863 668 198.651 653.807 238.448 627.216C278.245 600.624 309.262 562.829 327.579 518.609C345.895 474.39 350.688 425.732 341.35 378.788C332.012 331.845 308.964 288.724 275.12 254.88C241.276 221.036 198.155 197.988 151.212 188.65C104.268 179.312 55.6103 184.105 11.3906 202.421C-32.8291 220.738 -70.6244 251.755 -97.2157 291.552C-123.807 331.349 -138 378.137 -138 426L104 426L104 668Z" stroke="#A78BFA" stroke-width="6" mask="url(#path-4-inside-2_0_995)"/>
</svg>
