<svg width="96" height="96" viewBox="0 0 96 96" fill="none" xmlns="http://www.w3.org/2000/svg">
<rect width="96" height="96" rx="48" fill="#DBEAFE"/>
<path d="M24.2625 60.625C23.8764 60.6252 23.4986 60.5136 23.1745 60.3038C22.8505 60.094 22.594 59.7948 22.4362 59.4425C20.5268 55.1781 19.7149 50.5037 20.0745 45.8451C20.4341 41.1866 21.9537 36.6922 24.495 32.7713C27.0362 28.8504 30.5182 25.6278 34.6237 23.3971C38.7292 21.1664 43.3276 19.9986 48 20C48.5304 20 49.0391 20.2107 49.4142 20.5858C49.7893 20.9609 50 21.4696 50 22V48C50.0001 48.3862 49.8883 48.7642 49.6783 49.0882C49.4682 49.4123 49.1688 49.6686 48.8162 49.8263L25.0787 60.445C24.8225 60.5621 24.5442 60.6234 24.2625 60.625Z" fill="#2563EB"/>
<path d="M55.1988 24.5224C55.0537 24.493 54.904 24.4961 54.7604 24.5316C54.6167 24.567 54.4827 24.6339 54.368 24.7274C54.2534 24.8209 54.1609 24.9387 54.0972 25.0723C54.0336 25.2059 54.0004 25.3519 54 25.4999V47.9999C53.999 49.1579 53.6634 50.2909 53.0336 51.2627C52.4038 52.2345 51.5066 53.0035 50.45 53.4774L28.8913 63.1249C28.7576 63.1845 28.6387 63.2728 28.5429 63.3834C28.4471 63.4941 28.3768 63.6244 28.3368 63.7651C28.2969 63.9059 28.2884 64.0538 28.3118 64.1982C28.3352 64.3427 28.3901 64.4802 28.4725 64.6011C30.1224 67.0277 32.1704 69.1581 34.53 70.9024C39.0006 74.2281 44.4281 76.0165 50 75.9999C64.3363 75.9999 76 64.3361 76 49.9999C76 37.4436 67.0525 26.9374 55.1988 24.5224Z" fill="#2563EB"/>
</svg>
