<svg width="96" height="96" viewBox="0 0 96 96" fill="none" xmlns="http://www.w3.org/2000/svg">
<rect width="96" height="96" rx="48" fill="#CFFAFE"/>
<path d="M70 50.0001C68.7597 50.0018 67.5504 50.3872 66.5377 51.1033C65.5251 51.8194 64.7587 52.8313 64.3438 54.0001H59.4412L55.8975 43.3676C55.7624 42.9624 55.5011 42.6112 55.1519 42.3653C54.8028 42.1194 54.3841 41.9917 53.9571 42.0009C53.5301 42.0101 53.1173 42.1558 52.7791 42.4165C52.4409 42.6773 52.195 43.0395 52.0775 43.4501L46.5138 62.9201L39.9725 23.6701C39.8966 23.2169 39.6671 22.8037 39.3224 22.4998C38.9777 22.196 38.5389 22.0202 38.0798 22.0018C37.6206 21.9835 37.1692 22.1238 36.8014 22.3992C36.4336 22.6745 36.1718 23.0681 36.06 23.5138L28.4388 54.0001H22C21.4696 54.0001 20.9609 54.2108 20.5858 54.5858C20.2107 54.9609 20 55.4696 20 56.0001C20 56.5305 20.2107 57.0392 20.5858 57.4143C20.9609 57.7893 21.4696 58.0001 22 58.0001H30C30.446 58 30.8792 57.8509 31.2307 57.5764C31.5822 57.3019 31.8318 56.9177 31.94 56.4851L37.6075 33.8138L44.0275 72.3288C44.1015 72.7773 44.326 73.1872 44.6641 73.491C45.0022 73.7947 45.4337 73.9743 45.8875 74.0001C45.925 74.0001 45.9625 74.0001 46.0012 74.0001C46.4355 73.9997 46.8578 73.858 47.2044 73.5964C47.551 73.3349 47.8031 72.9676 47.9225 72.5501L54.1475 50.7651L56.1025 56.6326C56.2353 57.0308 56.49 57.3772 56.8305 57.6226C57.1711 57.868 57.5802 58.0001 58 58.0001H64.3438C64.7104 59.0372 65.3552 59.9535 66.2075 60.6489C67.0598 61.3444 68.0868 61.7921 69.1764 61.9432C70.266 62.0943 71.3762 61.9429 72.3856 61.5057C73.395 61.0684 74.2647 60.3621 74.8998 59.4639C75.5348 58.5657 75.9107 57.5102 75.9864 56.4128C76.0621 55.3154 75.8346 54.2183 75.3288 53.2415C74.8231 52.2646 74.0585 51.4456 73.1187 50.8739C72.1789 50.3022 71.1 50 70 50.0001Z" fill="#0891B2"/>
</svg>
