<svg width="25" height="24" viewBox="0 0 25 24" fill="none" xmlns="http://www.w3.org/2000/svg">
<path d="M16.3529 2H8.28294C6.70609 2.00185 5.19437 2.62914 4.07947 3.74424C2.96456 4.85933 2.33753 6.37115 2.33594 7.948L2.33594 16.018C2.33779 17.5948 2.96508 19.1066 4.08017 20.2215C5.19527 21.3364 6.70709 21.9634 8.28394 21.965H16.3539C17.9308 21.9631 19.4425 21.3359 20.5574 20.2208C21.6723 19.1057 22.2993 17.5938 22.3009 16.017V7.947C22.2991 6.37015 21.6718 4.85844 20.5567 3.74353C19.4416 2.62862 17.9298 2.00159 16.3529 2V2ZM20.2929 16.017C20.2929 16.5344 20.191 17.0468 19.993 17.5248C19.795 18.0028 19.5048 18.4371 19.1389 18.803C18.7731 19.1689 18.3387 19.4591 17.8607 19.6571C17.3827 19.8551 16.8703 19.957 16.3529 19.957H8.28294C7.23816 19.9567 6.23626 19.5415 5.49758 18.8026C4.75891 18.0638 4.34394 17.0618 4.34394 16.017V7.947C4.3442 6.90222 4.75943 5.90032 5.49829 5.16165C6.23715 4.42297 7.23916 4.008 8.28394 4.008H16.3539C17.3987 4.00827 18.4006 4.42349 19.1393 5.16235C19.878 5.90122 20.2929 6.90322 20.2929 7.948V16.018V16.017Z" fill="#475569"/>
<path d="M12.3179 6.81909C10.9494 6.82121 9.63747 7.36588 8.66984 8.3337C7.7022 9.30152 7.15779 10.6135 7.15594 11.9821C7.15752 13.351 7.70196 14.6634 8.66984 15.6315C9.63772 16.5996 10.95 17.1442 12.3189 17.1461C13.688 17.1445 15.0006 16.5999 15.9687 15.6318C16.9368 14.6637 17.4813 13.3512 17.4829 11.9821C17.4808 10.6132 16.9359 9.30098 15.9676 8.33329C14.9994 7.3656 13.6869 6.82141 12.3179 6.82009V6.81909ZM12.3179 15.1381C11.4812 15.1381 10.6787 14.8057 10.087 14.214C9.49534 13.6223 9.16294 12.8198 9.16294 11.9831C9.16294 11.1463 9.49534 10.3438 10.087 9.75217C10.6787 9.16049 11.4812 8.82809 12.3179 8.82809C13.1547 8.82809 13.9572 9.16049 14.5489 9.75217C15.1405 10.3438 15.4729 11.1463 15.4729 11.9831C15.4729 12.8198 15.1405 13.6223 14.5489 14.214C13.9572 14.8057 13.1547 15.1381 12.3179 15.1381Z" fill="#475569"/>
<path d="M17.4919 8.09509C18.1751 8.09509 18.7289 7.54127 18.7289 6.85809C18.7289 6.17492 18.1751 5.62109 17.4919 5.62109C16.8088 5.62109 16.2549 6.17492 16.2549 6.85809C16.2549 7.54127 16.8088 8.09509 17.4919 8.09509Z" fill="#475569"/>
</svg>
