<svg width="21" height="17" viewBox="0 0 21 17" fill="none" xmlns="http://www.w3.org/2000/svg">
<path d="M20.3359 1.90692C19.5863 2.2343 18.7924 2.44896 17.9799 2.54392C18.8327 2.04315 19.474 1.24903 19.7839 0.30992C18.9759 0.780248 18.0947 1.11152 17.1769 1.28992C16.7905 0.885125 16.3256 0.563307 15.8107 0.344098C15.2958 0.124889 14.7416 0.0128852 14.1819 0.0149198C11.9159 0.0149198 10.0789 1.82492 10.0789 4.05492C10.0789 4.37092 10.1149 4.67992 10.1849 4.97492C8.55951 4.89761 6.96805 4.48233 5.51211 3.75556C4.05616 3.02879 2.7677 2.0065 1.72894 0.75392C1.36476 1.36832 1.17335 2.0697 1.17494 2.78392C1.17563 3.45189 1.34277 4.10915 1.66123 4.69631C1.97969 5.28348 2.43944 5.78203 2.99894 6.14692C2.34842 6.12592 1.71196 5.95225 1.14094 5.63992V5.68992C1.14094 7.64792 2.55594 9.28092 4.43094 9.65292C4.07855 9.74642 3.71552 9.79381 3.35094 9.79392C3.08594 9.79392 2.82894 9.76892 2.57794 9.71892C2.84602 10.5268 3.35904 11.2312 4.04576 11.7343C4.73247 12.2373 5.55878 12.514 6.40994 12.5259C4.95001 13.6505 3.15776 14.258 1.31494 14.2529C0.982937 14.2529 0.656938 14.2329 0.335938 14.1969C2.21719 15.3876 4.39853 16.0182 6.62494 16.0149C14.1719 16.0149 18.2979 9.85792 18.2979 4.51892L18.2839 3.99592C19.0888 3.42959 19.7841 2.72177 20.3359 1.90692V1.90692Z" fill="#475569"/>
</svg>
