<svg width="1110" height="722" viewBox="0 0 1110 722" fill="none" xmlns="http://www.w3.org/2000/svg">
<g clip-path="url(#clip0_0_940)">
<rect x="5" y="5" width="1100" height="712" rx="20" fill="white"/>
<path d="M26 29.6937C23.6987 29.6937 21.8333 27.8283 21.8333 25.527C21.8333 23.2258 23.6987 21.3604 26 21.3604C28.3012 21.3604 30.1666 23.2258 30.1666 25.527C30.1666 27.8283 28.3012 29.6937 26 29.6937Z" fill="#E11D48"/>
<path d="M41 29.6937C38.6987 29.6937 36.8333 27.8283 36.8333 25.527C36.8333 23.2258 38.6987 21.3604 41 21.3604C43.3012 21.3604 45.1666 23.2258 45.1666 25.527C45.1666 27.8283 43.3012 29.6937 41 29.6937Z" fill="#FBBF24"/>
<path d="M56 29.6937C53.6987 29.6937 51.8333 27.8283 51.8333 25.527C51.8333 23.2258 53.6987 21.3604 56 21.3604C58.3012 21.3604 60.1666 23.2258 60.1666 25.527C60.1666 27.8283 58.3012 29.6937 56 29.6937Z" fill="#22C55E"/>
<path d="M1046.76 25.4999L1051.71 30.4499C1051.8 30.5422 1051.88 30.6525 1051.93 30.7745C1051.98 30.8965 1052.01 31.0278 1052.01 31.1605C1052.01 31.2933 1051.99 31.425 1051.94 31.5479C1051.89 31.6708 1051.81 31.7824 1051.72 31.8763C1051.63 31.9702 1051.51 32.0445 1051.39 32.0948C1051.27 32.145 1051.14 32.1703 1051 32.1692C1050.87 32.168 1050.74 32.1404 1050.62 32.088C1050.5 32.0356 1050.39 31.9594 1050.29 31.8639L1044.64 26.2069C1044.45 26.0194 1044.34 25.7651 1044.34 25.4999C1044.34 25.2348 1044.45 24.9805 1044.64 24.7929L1050.29 19.1359C1050.48 18.9538 1050.73 18.853 1051 18.8553C1051.26 18.8575 1051.51 18.9627 1051.69 19.1481C1051.88 19.3335 1051.99 19.5843 1051.99 19.8465C1051.99 20.1087 1051.89 20.3613 1051.71 20.5499L1046.76 25.4999Z" fill="#94A3B8"/>
<path d="M1078.31 25.571L1073.36 20.621C1073.18 20.4324 1073.08 20.1798 1073.08 19.9176C1073.09 19.6554 1073.19 19.4046 1073.38 19.2192C1073.56 19.0338 1073.81 18.9286 1074.07 18.9263C1074.34 18.924 1074.59 19.0248 1074.78 19.207L1080.43 24.864C1080.62 25.0515 1080.73 25.3058 1080.73 25.571C1080.73 25.8361 1080.62 26.0905 1080.43 26.278L1074.78 31.935C1074.59 32.1171 1074.34 32.2179 1074.07 32.2157C1073.81 32.2134 1073.56 32.1082 1073.38 31.9228C1073.19 31.7374 1073.09 31.4866 1073.08 31.2244C1073.08 30.9622 1073.18 30.7096 1073.36 30.521L1078.31 25.571Z" fill="#475569"/>
<rect x="308.515" y="13" width="494.903" height="25" rx="5" fill="#F1F5F9"/>
<path d="M540.398 28.875L542.027 23.6602H542.742L542.601 24.6973L540.943 30H540.246L540.398 28.875ZM539.303 23.6602L540.691 28.9336L540.791 30H540.058L538.219 23.6602H539.303ZM544.301 28.8926L545.625 23.6602H546.703L544.863 30H544.137L544.301 28.8926ZM542.9 23.6602L544.494 28.7871L544.676 30H543.984L542.279 24.6855L542.138 23.6602H542.9ZM548.9 24.6562V30H547.816V23.6602H548.871L548.9 24.6562ZM550.881 23.625L550.875 24.6328C550.785 24.6133 550.699 24.6016 550.617 24.5977C550.539 24.5898 550.449 24.5859 550.347 24.5859C550.097 24.5859 549.877 24.625 549.685 24.7031C549.494 24.7812 549.332 24.8906 549.199 25.0312C549.066 25.1719 548.961 25.3398 548.883 25.5352C548.808 25.7266 548.76 25.9375 548.736 26.168L548.431 26.3438C548.431 25.9609 548.469 25.6016 548.543 25.2656C548.621 24.9297 548.74 24.6328 548.9 24.375C549.06 24.1133 549.263 23.9102 549.51 23.7656C549.76 23.6172 550.056 23.543 550.4 23.543C550.478 23.543 550.568 23.5527 550.67 23.5723C550.771 23.5879 550.842 23.6055 550.881 23.625ZM551.174 29.4258C551.174 29.2422 551.23 29.0879 551.344 28.9629C551.461 28.834 551.629 28.7695 551.847 28.7695C552.066 28.7695 552.232 28.834 552.345 28.9629C552.463 29.0879 552.521 29.2422 552.521 29.4258C552.521 29.6055 552.463 29.7578 552.345 29.8828C552.232 30.0078 552.066 30.0703 551.847 30.0703C551.629 30.0703 551.461 30.0078 551.344 29.8828C551.23 29.7578 551.174 29.6055 551.174 29.4258ZM558.058 28.916V25.6523C558.058 25.4023 558.008 25.1855 557.906 25.002C557.808 24.8145 557.66 24.6699 557.461 24.5684C557.262 24.4668 557.015 24.416 556.722 24.416C556.449 24.416 556.209 24.4629 556.002 24.5566C555.799 24.6504 555.638 24.7734 555.521 24.9258C555.408 25.0781 555.351 25.2422 555.351 25.418H554.267C554.267 25.1914 554.326 24.9668 554.443 24.7441C554.56 24.5215 554.728 24.3203 554.947 24.1406C555.17 23.957 555.435 23.8125 555.744 23.707C556.056 23.5977 556.404 23.543 556.787 23.543C557.248 23.543 557.654 23.6211 558.006 23.7773C558.361 23.9336 558.638 24.1699 558.838 24.4863C559.041 24.7988 559.142 25.1914 559.142 25.6641V28.6172C559.142 28.8281 559.16 29.0527 559.195 29.291C559.234 29.5293 559.291 29.7344 559.365 29.9062V30H558.234C558.179 29.875 558.137 29.709 558.105 29.502C558.074 29.291 558.058 29.0957 558.058 28.916ZM558.246 26.1562L558.258 26.918H557.162C556.853 26.918 556.578 26.9434 556.336 26.9941C556.094 27.041 555.89 27.1133 555.726 27.2109C555.562 27.3086 555.437 27.4316 555.351 27.5801C555.265 27.7246 555.222 27.8945 555.222 28.0898C555.222 28.2891 555.267 28.4707 555.357 28.6348C555.447 28.7988 555.582 28.9297 555.762 29.0273C555.945 29.1211 556.17 29.168 556.435 29.168C556.767 29.168 557.06 29.0977 557.314 28.957C557.568 28.8164 557.769 28.6445 557.918 28.4414C558.07 28.2383 558.152 28.041 558.164 27.8496L558.627 28.3711C558.599 28.5352 558.525 28.7168 558.404 28.916C558.283 29.1152 558.121 29.3066 557.918 29.4902C557.719 29.6699 557.48 29.8203 557.203 29.9414C556.929 30.0586 556.621 30.1172 556.277 30.1172C555.847 30.1172 555.47 30.0332 555.146 29.8652C554.826 29.6973 554.576 29.4727 554.396 29.1914C554.22 28.9062 554.133 28.5879 554.133 28.2363C554.133 27.8965 554.199 27.5977 554.332 27.3398C554.465 27.0781 554.656 26.8613 554.906 26.6895C555.156 26.5137 555.457 26.3809 555.808 26.291C556.16 26.2012 556.553 26.1562 556.986 26.1562H558.246ZM561.931 24.8789V32.4375H560.842V23.6602H561.838L561.931 24.8789ZM566.203 26.7773V26.9004C566.203 27.3613 566.148 27.7891 566.039 28.1836C565.929 28.5742 565.769 28.9141 565.558 29.2031C565.351 29.4922 565.095 29.7168 564.791 29.877C564.486 30.0371 564.137 30.1172 563.742 30.1172C563.34 30.1172 562.984 30.0508 562.676 29.918C562.367 29.7852 562.105 29.5918 561.89 29.3379C561.676 29.084 561.504 28.7793 561.375 28.4238C561.25 28.0684 561.164 27.668 561.117 27.2227V26.5664C561.164 26.0977 561.252 25.6777 561.381 25.3066C561.51 24.9355 561.679 24.6191 561.89 24.3574C562.105 24.0918 562.365 23.8906 562.67 23.7539C562.974 23.6133 563.326 23.543 563.724 23.543C564.123 23.543 564.476 23.6211 564.785 23.7773C565.094 23.9297 565.353 24.1484 565.564 24.4336C565.775 24.7188 565.933 25.0605 566.039 25.459C566.148 25.8535 566.203 26.293 566.203 26.7773ZM565.113 26.9004V26.7773C565.113 26.4609 565.08 26.1641 565.013 25.8867C564.947 25.6055 564.844 25.3594 564.703 25.1484C564.566 24.9336 564.39 24.7656 564.176 24.6445C563.961 24.5195 563.705 24.457 563.408 24.457C563.135 24.457 562.896 24.5039 562.693 24.5977C562.494 24.6914 562.324 24.8184 562.183 24.9785C562.043 25.1348 561.928 25.3145 561.838 25.5176C561.752 25.7168 561.687 25.9238 561.644 26.1387V27.6562C561.722 27.9297 561.832 28.1875 561.972 28.4297C562.113 28.668 562.301 28.8613 562.535 29.0098C562.769 29.1543 563.064 29.2266 563.42 29.2266C563.713 29.2266 563.965 29.166 564.176 29.0449C564.39 28.9199 564.566 28.75 564.703 28.5352C564.844 28.3203 564.947 28.0742 565.013 27.7969C565.08 27.5156 565.113 27.2168 565.113 26.9004ZM568.67 24.8789V32.4375H567.58V23.6602H568.576L568.67 24.8789ZM572.941 26.7773V26.9004C572.941 27.3613 572.887 27.7891 572.777 28.1836C572.668 28.5742 572.508 28.9141 572.297 29.2031C572.09 29.4922 571.834 29.7168 571.529 29.877C571.224 30.0371 570.875 30.1172 570.48 30.1172C570.078 30.1172 569.722 30.0508 569.414 29.918C569.105 29.7852 568.844 29.5918 568.629 29.3379C568.414 29.084 568.242 28.7793 568.113 28.4238C567.988 28.0684 567.902 27.668 567.855 27.2227V26.5664C567.902 26.0977 567.99 25.6777 568.119 25.3066C568.248 24.9355 568.418 24.6191 568.629 24.3574C568.844 24.0918 569.103 23.8906 569.408 23.7539C569.713 23.6133 570.064 23.543 570.463 23.543C570.861 23.543 571.215 23.6211 571.523 23.7773C571.832 23.9297 572.092 24.1484 572.303 24.4336C572.513 24.7188 572.672 25.0605 572.777 25.459C572.887 25.8535 572.941 26.293 572.941 26.7773ZM571.851 26.9004V26.7773C571.851 26.4609 571.818 26.1641 571.752 25.8867C571.685 25.6055 571.582 25.3594 571.441 25.1484C571.304 24.9336 571.129 24.7656 570.914 24.6445C570.699 24.5195 570.443 24.457 570.146 24.457C569.873 24.457 569.635 24.5039 569.431 24.5977C569.232 24.6914 569.062 24.8184 568.922 24.9785C568.781 25.1348 568.666 25.3145 568.576 25.5176C568.49 25.7168 568.426 25.9238 568.383 26.1387V27.6562C568.461 27.9297 568.57 28.1875 568.711 28.4297C568.851 28.668 569.039 28.8613 569.273 29.0098C569.508 29.1543 569.803 29.2266 570.158 29.2266C570.451 29.2266 570.703 29.166 570.914 29.0449C571.129 28.9199 571.304 28.75 571.441 28.5352C571.582 28.3203 571.685 28.0742 571.752 27.7969C571.818 27.5156 571.851 27.2168 571.851 26.9004Z" fill="#94A3B8"/>
<rect x="5" y="46" width="1100" height="671" fill="#DBEAFE"/>
<path d="M5 46.8948H189.255V717H5V46.8948Z" fill="#BFDBFE"/>
<path d="M27.1105 110.416C27.1105 104.487 32.0602 99.6799 38.1658 99.6799H156.089C162.194 99.6799 167.144 104.487 167.144 110.416C167.144 116.345 162.194 121.152 156.089 121.152H38.1658C32.0601 121.152 27.1105 116.345 27.1105 110.416Z" fill="#93C5FD"/>
<path d="M71.3317 185.568C71.3317 182.603 73.8065 180.2 76.8593 180.2H168.987C172.039 180.2 174.514 182.603 174.514 185.568C174.514 188.533 172.039 190.936 168.987 190.936H76.8593C73.8065 190.936 71.3317 188.533 71.3317 185.568Z" fill="white"/>
<path d="M71.3317 242.827C71.3317 239.862 73.8065 237.459 76.8593 237.459H140.427C143.48 237.459 145.955 239.862 145.955 242.827C145.955 245.791 143.48 248.195 140.427 248.195H76.8593C73.8065 248.195 71.3317 245.791 71.3317 242.827Z" fill="white"/>
<path d="M71.3317 300.085C71.3317 297.121 73.8065 294.717 76.8593 294.717H156.089C159.142 294.717 161.616 297.121 161.616 300.085C161.616 303.05 159.142 305.453 156.089 305.453H76.8593C73.8065 305.453 71.3317 303.05 71.3317 300.085Z" fill="white"/>
<path fill-rule="evenodd" clip-rule="evenodd" d="M41.8509 197.199C48.4654 197.199 53.8275 191.992 53.8275 185.568C53.8275 179.145 48.4654 173.937 41.8509 173.937C35.2364 173.937 29.8744 179.145 29.8744 185.568C29.8744 191.992 35.2364 197.199 41.8509 197.199ZM41.8509 199.883C49.9918 199.883 56.5913 193.474 56.5913 185.568C56.5913 177.662 49.9918 171.253 41.8509 171.253C33.71 171.253 27.1105 177.662 27.1105 185.568C27.1105 193.474 33.71 199.883 41.8509 199.883Z" fill="#93C5FD"/>
<path d="M248.216 110.416C248.216 106.463 251.516 103.259 255.586 103.259H362.454C366.524 103.259 369.824 106.463 369.824 110.416C369.824 114.369 366.524 117.573 362.454 117.573H255.586C251.516 117.573 248.216 114.369 248.216 110.416Z" fill="#BFDBFE"/>
<path fill-rule="evenodd" clip-rule="evenodd" d="M443.987 399C444.041 393.897 448.215 389.552 453.58 389.552C456.874 389.552 459.296 391.135 460.842 392.626C461.273 393.041 461.642 393.455 461.951 393.836C462.261 393.455 462.63 393.041 463.061 392.626C464.606 391.135 467.029 389.552 470.322 389.552C475.688 389.552 479.862 393.897 479.916 399L479.916 399.001C480.018 408.953 471.783 415.839 463.506 421.295C463.048 421.598 462.506 421.76 461.951 421.76C461.397 421.76 460.855 421.598 460.397 421.295C452.119 415.839 443.884 408.953 443.987 399L443.987 399ZM463.186 396.865C462.951 397.318 462.474 397.604 461.951 397.604C461.429 397.604 460.952 397.318 460.717 396.866C460.717 396.865 460.716 396.864 460.715 396.862C460.714 396.859 460.711 396.854 460.707 396.847C460.705 396.843 460.703 396.839 460.7 396.834C460.684 396.805 460.659 396.759 460.622 396.698C460.55 396.575 460.437 396.392 460.283 396.17C459.975 395.721 459.511 395.124 458.895 394.53C457.657 393.337 455.894 392.236 453.58 392.236C449.832 392.236 446.79 395.295 446.75 399.027M463.186 396.865C463.186 396.865 463.187 396.864 463.187 396.862C463.19 396.857 463.195 396.848 463.203 396.834C463.218 396.805 463.244 396.759 463.28 396.698C463.353 396.575 463.466 396.392 463.619 396.17C463.928 395.721 464.392 395.124 465.008 394.53C466.246 393.337 468.009 392.236 470.322 392.236C474.07 392.236 477.113 395.295 477.152 399.027C477.239 407.414 470.303 413.571 461.953 419.075L461.951 419.076L461.95 419.075C453.599 413.571 446.664 407.414 446.75 399.028" fill="white"/>
<path d="M248.216 405.656C248.216 401.703 251.516 398.499 255.586 398.499H305.335C309.405 398.499 312.705 401.703 312.705 405.656C312.705 409.609 309.405 412.813 305.335 412.813H255.586C251.516 412.813 248.216 409.609 248.216 405.656Z" fill="#BFDBFE"/>
<path d="M327.446 405.656C327.446 401.703 330.745 398.499 334.816 398.499H417.73C421.801 398.499 425.101 401.703 425.101 405.656C425.101 409.609 421.801 412.813 417.73 412.813H334.816C330.745 412.813 327.446 409.609 327.446 405.656Z" fill="#BFDBFE"/>
<path d="M248.216 475.44C248.216 472.475 250.691 470.072 253.744 470.072H331.131C334.183 470.072 336.658 472.475 336.658 475.44C336.658 478.405 334.183 480.808 331.131 480.808H253.744C250.691 480.808 248.216 478.405 248.216 475.44Z" fill="white"/>
<path d="M248.216 500.491C248.216 497.526 250.691 495.123 253.744 495.123H372.588C375.641 495.123 378.116 497.526 378.116 500.491C378.116 503.455 375.641 505.859 372.588 505.859H253.744C250.691 505.859 248.216 503.455 248.216 500.491Z" fill="white"/>
<path d="M351.399 475.44C351.399 472.475 353.873 470.072 356.926 470.072H449.054C452.106 470.072 454.581 472.475 454.581 475.44C454.581 478.405 452.106 480.808 449.054 480.808H356.926C353.873 480.808 351.399 478.405 351.399 475.44Z" fill="white"/>
<path d="M248.216 180.2C248.216 177.235 250.691 174.832 253.744 174.832H331.131C334.183 174.832 336.658 177.235 336.658 180.2C336.658 183.165 334.183 185.568 331.131 185.568H253.744C250.691 185.568 248.216 183.165 248.216 180.2Z" fill="white"/>
<path d="M248.216 205.251C248.216 202.286 250.691 199.883 253.744 199.883H444.447C447.5 199.883 449.975 202.286 449.975 205.251C449.975 208.215 447.5 210.619 444.447 210.619H253.744C250.691 210.619 248.216 208.215 248.216 205.251Z" fill="white"/>
<path d="M351.399 180.2C351.399 177.235 353.873 174.832 356.926 174.832H566.977C570.029 174.832 572.504 177.235 572.504 180.2C572.504 183.165 570.029 185.568 566.977 185.568H356.926C353.873 185.568 351.399 183.165 351.399 180.2Z" fill="white"/>
<path fill-rule="evenodd" clip-rule="evenodd" d="M54.7487 231.196H30.7956V254.457H54.7487V231.196ZM28.0318 228.512V257.141H57.5125V228.512H28.0318Z" fill="#60A5FA"/>
<g clip-path="url(#clip1_0_940)">
<rect x="643.442" y="110.416" width="184.255" height="245.139" rx="20" fill="white"/>
<path d="M766.179 355.766C766.179 417.798 714.826 468.084 651.479 468.084C588.131 468.084 536.778 417.798 536.778 355.766C536.778 293.735 588.131 243.448 651.479 243.448C714.826 243.448 766.179 293.735 766.179 355.766Z" fill="#FACC15"/>
<path fill-rule="evenodd" clip-rule="evenodd" d="M853.276 205.887L793.343 147.685L733.411 205.887L793.343 264.088L853.276 205.887ZM793.343 142.624L728.199 205.887L793.343 269.149L858.487 205.887L793.343 142.624Z" fill="#BFDBFE"/>
</g>
<path d="M42.7722 287.56L57.5125 312.354H28.0318L42.7722 287.56Z" fill="#93C5FD"/>
<rect x="857.178" y="110.416" width="184.255" height="180.723" rx="20" fill="white"/>
<path fill-rule="evenodd" clip-rule="evenodd" d="M940.062 245.168C958.432 245.168 973.199 230.84 973.199 213.315C973.199 195.79 958.432 181.462 940.062 181.462C921.693 181.462 906.926 195.79 906.926 213.315C906.926 230.84 921.693 245.168 940.062 245.168ZM940.062 254.114C963.451 254.114 982.411 235.848 982.411 213.315C982.411 190.782 963.451 172.515 940.062 172.515C916.674 172.515 897.714 190.782 897.714 213.315C897.714 235.848 916.674 254.114 940.062 254.114Z" fill="#BFDBFE"/>
<path d="M959.31 200.401L971.493 156.245L1004.78 188.569L959.31 200.401Z" fill="#FACC15"/>
<g clip-path="url(#clip2_0_940)">
<rect x="643.442" y="384.184" width="184.255" height="273.768" rx="20" fill="white"/>
<path fill-rule="evenodd" clip-rule="evenodd" d="M816.181 692.844C867.825 692.844 909.69 652.188 909.69 602.035C909.69 551.883 867.825 511.227 816.181 511.227C764.537 511.227 722.672 551.883 722.672 602.035C722.672 652.188 764.537 692.844 816.181 692.844ZM816.181 701.791C872.913 701.791 918.903 657.129 918.903 602.035C918.903 546.942 872.913 502.28 816.181 502.28C759.449 502.28 713.459 546.942 713.459 602.035C713.459 657.129 759.449 701.791 816.181 701.791Z" fill="#FACC15"/>
<path d="M740.176 465.801C740.176 482.713 725.946 496.423 708.392 496.423C690.838 496.423 676.608 482.713 676.608 465.801C676.608 448.89 690.838 435.18 708.392 435.18C725.946 435.18 740.176 448.89 740.176 465.801Z" fill="#BFDBFE"/>
<path fill-rule="evenodd" clip-rule="evenodd" d="M708.392 493.739C724.44 493.739 737.412 481.211 737.412 465.801C737.412 450.392 724.44 437.864 708.392 437.864C692.344 437.864 679.372 450.392 679.372 465.801C679.372 481.211 692.344 493.739 708.392 493.739ZM708.392 496.423C725.946 496.423 740.176 482.713 740.176 465.801C740.176 448.89 725.946 435.18 708.392 435.18C690.838 435.18 676.608 448.89 676.608 465.801C676.608 482.713 690.838 496.423 708.392 496.423Z" fill="#BFDBFE"/>
</g>
<g clip-path="url(#clip3_0_940)">
<rect x="857.178" y="319.768" width="184.255" height="305.976" rx="20" fill="white"/>
<path d="M1083.81 540.303C1083.81 562.291 1065.66 580.116 1043.27 580.116C1020.89 580.116 1002.74 562.291 1002.74 540.303C1002.74 518.315 1020.89 500.491 1043.27 500.491C1065.66 500.491 1083.81 518.315 1083.81 540.303Z" fill="white"/>
<path fill-rule="evenodd" clip-rule="evenodd" d="M1043.27 577.432C1064.11 577.432 1081.05 560.838 1081.05 540.303C1081.05 519.769 1064.11 503.175 1043.27 503.175C1022.44 503.175 1005.5 519.769 1005.5 540.303C1005.5 560.838 1022.44 577.432 1043.27 577.432ZM1043.27 580.116C1065.66 580.116 1083.81 562.291 1083.81 540.303C1083.81 518.315 1065.66 500.491 1043.27 500.491C1020.89 500.491 1002.74 518.315 1002.74 540.303C1002.74 562.291 1020.89 580.116 1043.27 580.116Z" fill="#BFDBFE"/>
<path d="M1010.11 427.575C1010.11 456.975 985.773 480.808 955.754 480.808C925.734 480.808 901.399 456.975 901.399 427.575C901.399 398.176 925.734 374.343 955.754 374.343C985.773 374.343 1010.11 398.176 1010.11 427.575Z" fill="#BFDBFE"/>
<path d="M891.265 530.015L893.864 537.276L901.779 537.433L895.47 542.078L897.763 549.436L891.265 545.045L884.767 549.436L887.059 542.078L880.751 537.433L888.665 537.276L891.265 530.015Z" fill="#FACC15"/>
<path d="M929.037 530.015L931.636 537.276L939.551 537.433L933.243 542.078L935.535 549.436L929.037 545.045L922.539 549.436L924.831 542.078L918.523 537.433L926.438 537.276L929.037 530.015Z" fill="#FACC15"/>
<path d="M966.809 530.015L969.408 537.276L977.323 537.433L971.015 542.078L973.307 549.436L966.809 545.045L960.311 549.436L962.603 542.078L956.295 537.433L964.21 537.276L966.809 530.015Z" fill="#FACC15"/>
<path d="M1004.58 530.015L1007.18 537.276L1015.1 537.433L1008.79 542.078L1011.08 549.436L1004.58 545.045L998.083 549.436L1000.38 542.078L994.067 537.433L1001.98 537.276L1004.58 530.015Z" fill="#FACC15"/>
<path d="M1042.35 530.015L1044.95 537.276L1052.87 537.433L1046.56 542.078L1048.85 549.436L1042.35 545.045L1035.86 549.436L1038.15 542.078L1031.84 537.433L1039.75 537.276L1042.35 530.015Z" fill="#FACC15"/>
</g>
</g>
<rect x="2.5" y="2.5" width="1105" height="717" rx="22.5" stroke="#4C1D95" stroke-width="5"/>
<defs>
<clipPath id="clip0_0_940">
<rect x="5" y="5" width="1100" height="712" rx="20" fill="white"/>
</clipPath>
<clipPath id="clip1_0_940">
<rect x="643.442" y="110.416" width="184.255" height="245.139" rx="20" fill="white"/>
</clipPath>
<clipPath id="clip2_0_940">
<rect x="643.442" y="384.184" width="184.255" height="273.768" rx="20" fill="white"/>
</clipPath>
<clipPath id="clip3_0_940">
<rect x="857.178" y="319.768" width="184.255" height="305.976" rx="20" fill="white"/>
</clipPath>
</defs>
</svg>
