<svg width="21" height="14" viewBox="0 0 21 14" fill="none" xmlns="http://www.w3.org/2000/svg">
<path d="M16.1479 0.0171133H4.48094C2.19094 0.0171133 0.335938 1.85211 0.335938 4.11611V9.88411C0.335938 12.1481 2.19194 13.9841 4.48094 13.9841H16.1479C18.4379 13.9841 20.2929 12.1481 20.2929 9.88411V4.11611C20.2929 1.85211 18.4369 0.0161133 16.1479 0.0161133V0.0171133ZM13.3449 7.28011L7.88794 9.85511C7.85465 9.87114 7.81786 9.87848 7.78097 9.87647C7.74408 9.87445 7.70831 9.86313 7.67697 9.84357C7.64563 9.82401 7.61975 9.79684 7.60174 9.76459C7.58372 9.73234 7.57416 9.69605 7.57394 9.65911V4.35011C7.5746 4.31299 7.58466 4.27663 7.60316 4.24444C7.62166 4.21224 7.64801 4.18526 7.67976 4.16599C7.7115 4.14672 7.74761 4.13581 7.78471 4.13425C7.82181 4.1327 7.8587 4.14057 7.89194 4.15711L13.3499 6.89211C13.3863 6.91024 13.4168 6.93826 13.4379 6.97294C13.4591 7.00762 13.47 7.04756 13.4695 7.08818C13.469 7.1288 13.457 7.16845 13.435 7.20258C13.413 7.2367 13.3817 7.26392 13.3449 7.28111V7.28011Z" fill="#475569"/>
</svg>
