<svg width="730" height="730" viewBox="0 0 730 730" fill="none" xmlns="http://www.w3.org/2000/svg">
<mask id="path-1-inside-1_0_932" fill="white">
<path d="M594 265C607.132 265 620.136 267.587 632.268 272.612C644.401 277.638 655.425 285.003 664.711 294.289C673.997 303.575 681.363 314.599 686.388 326.732C691.413 338.864 694 351.868 694 365C694 378.132 691.413 391.136 686.388 403.268C681.362 415.401 673.997 426.425 664.711 435.711C655.425 444.997 644.401 452.363 632.268 457.388C620.136 462.413 607.132 465 594 465L594 365V265Z"/>
</mask>
<path d="M594 265C607.132 265 620.136 267.587 632.268 272.612C644.401 277.638 655.425 285.003 664.711 294.289C673.997 303.575 681.363 314.599 686.388 326.732C691.413 338.864 694 351.868 694 365C694 378.132 691.413 391.136 686.388 403.268C681.362 415.401 673.997 426.425 664.711 435.711C655.425 444.997 644.401 452.363 632.268 457.388C620.136 462.413 607.132 465 594 465L594 365V265Z" stroke="#8B5CF6" stroke-width="10" mask="url(#path-1-inside-1_0_932)"/>
<path d="M570 90C570 72.2305 577.059 55.1888 589.624 42.6238C602.189 30.0589 619.23 23 637 23V90L570 90Z" fill="#F5F3FF"/>
<path d="M637 8C647.9 8 658.693 10.1469 668.763 14.318C678.833 18.4891 687.983 24.6029 695.69 32.3102C703.397 40.0174 709.511 49.1673 713.682 59.2373C717.853 69.3073 720 80.1003 720 91C720 101.9 717.853 112.693 713.682 122.763C709.511 132.833 703.397 141.983 695.69 149.69C687.983 157.397 678.833 163.511 668.763 167.682C658.693 171.853 647.9 174 637 174" stroke="#DDD6FE" stroke-width="5"/>
<path d="M730 365C730 461.804 691.545 554.643 623.094 623.094C554.643 691.545 461.804 730 365 730L365 365H730Z" fill="#E9D5FF"/>
<mask id="path-5-inside-2_0_932" fill="white">
<path d="M594 248C609.496 248 624.84 251.052 639.157 256.982C653.473 262.912 666.481 271.604 677.439 282.561C688.396 293.519 697.088 306.527 703.018 320.843C708.948 335.16 712 350.504 712 366C712 381.496 708.948 396.84 703.018 411.157C697.088 425.473 688.396 438.481 677.439 449.439C666.481 460.396 653.473 469.088 639.157 475.018C624.84 480.948 609.496 484 594 484L594 366V248Z"/>
</mask>
<path d="M594 248C609.496 248 624.84 251.052 639.157 256.982C653.473 262.912 666.481 271.604 677.439 282.561C688.396 293.519 697.088 306.527 703.018 320.843C708.948 335.16 712 350.504 712 366C712 381.496 708.948 396.84 703.018 411.157C697.088 425.473 688.396 438.481 677.439 449.439C666.481 460.396 653.473 469.088 639.157 475.018C624.84 480.948 609.496 484 594 484L594 366V248Z" stroke="white" stroke-width="6" mask="url(#path-5-inside-2_0_932)"/>
<path d="M594 283C604.9 283 615.693 285.147 625.763 289.318C635.833 293.489 644.983 299.603 652.69 307.31C660.397 315.017 666.511 324.167 670.682 334.237C674.853 344.307 677 355.1 677 366C677 376.9 674.853 387.693 670.682 397.763C666.511 407.833 660.397 416.983 652.69 424.69C644.983 432.397 635.833 438.511 625.763 442.682C615.693 446.853 604.9 449 594 449L594 366V283Z" fill="#D8B4FE"/>
</svg>
