<svg width="562" height="384" viewBox="0 0 562 384" fill="none" xmlns="http://www.w3.org/2000/svg">
<g clip-path="url(#clip0_0_972)">
<rect x="5" y="5" width="552" height="374" rx="20" fill="white"/>
<path d="M26 29.6938C23.6987 29.6938 21.8333 27.8283 21.8333 25.5271C21.8333 23.2258 23.6987 21.3604 26 21.3604C28.3012 21.3604 30.1666 23.2258 30.1666 25.5271C30.1666 27.8283 28.3012 29.6938 26 29.6938Z" fill="#E11D48"/>
<path d="M41 29.6938C38.6987 29.6938 36.8333 27.8283 36.8333 25.5271C36.8333 23.2258 38.6987 21.3604 41 21.3604C43.3012 21.3604 45.1666 23.2258 45.1666 25.5271C45.1666 27.8283 43.3012 29.6938 41 29.6938Z" fill="#FBBF24"/>
<path d="M56 29.6938C53.6987 29.6938 51.8333 27.8283 51.8333 25.5271C51.8333 23.2258 53.6987 21.3604 56 21.3604C58.3012 21.3604 60.1666 23.2258 60.1666 25.5271C60.1666 27.8283 58.3012 29.6938 56 29.6938Z" fill="#22C55E"/>
<path d="M498.757 25.5L503.707 30.45C503.802 30.5422 503.879 30.6526 503.931 30.7746C503.983 30.8966 504.011 31.0278 504.012 31.1606C504.013 31.2934 503.988 31.4251 503.938 31.548C503.888 31.6708 503.813 31.7825 503.719 31.8764C503.625 31.9703 503.514 32.0445 503.391 32.0948C503.268 32.1451 503.136 32.1704 503.004 32.1692C502.871 32.1681 502.74 32.1405 502.618 32.0881C502.496 32.0357 502.385 31.9595 502.293 31.864L496.636 26.207C496.449 26.0195 496.343 25.7652 496.343 25.5C496.343 25.2348 496.449 24.9805 496.636 24.793L502.293 19.136C502.482 18.9538 502.734 18.853 502.996 18.8553C503.259 18.8576 503.509 18.9628 503.695 19.1482C503.88 19.3336 503.985 19.5844 503.988 19.8466C503.99 20.1088 503.889 20.3614 503.707 20.55L498.757 25.5Z" fill="#94A3B8"/>
<path d="M530.314 25.571L525.364 20.621C525.182 20.4324 525.081 20.1798 525.083 19.9176C525.086 19.6554 525.191 19.4046 525.376 19.2192C525.562 19.0338 525.812 18.9286 526.075 18.9263C526.337 18.924 526.589 19.0248 526.778 19.207L532.435 24.864C532.622 25.0515 532.728 25.3058 532.728 25.571C532.728 25.8362 532.622 26.0905 532.435 26.278L526.778 31.935C526.589 32.1172 526.337 32.2179 526.075 32.2157C525.812 32.2134 525.562 32.1082 525.376 31.9228C525.191 31.7374 525.086 31.4866 525.083 31.2244C525.081 30.9622 525.182 30.7096 525.364 30.521L530.314 25.571Z" fill="#475569"/>
<rect x="157.309" y="13" width="248.352" height="25" rx="5" fill="#F1F5F9"/>
<path d="M265.917 28.875L267.546 23.6602H268.26L268.12 24.6973L266.462 30H265.764L265.917 28.875ZM264.821 23.6602L266.21 28.9336L266.309 30H265.577L263.737 23.6602H264.821ZM269.819 28.8926L271.143 23.6602H272.221L270.382 30H269.655L269.819 28.8926ZM268.419 23.6602L270.012 28.7871L270.194 30H269.503L267.798 24.6855L267.657 23.6602H268.419ZM274.419 24.6562V30H273.335V23.6602H274.389L274.419 24.6562ZM276.399 23.625L276.393 24.6328C276.303 24.6133 276.218 24.6016 276.135 24.5977C276.057 24.5898 275.968 24.5859 275.866 24.5859C275.616 24.5859 275.395 24.625 275.204 24.7031C275.012 24.7812 274.85 24.8906 274.718 25.0312C274.585 25.1719 274.479 25.3398 274.401 25.5352C274.327 25.7266 274.278 25.9375 274.255 26.168L273.95 26.3438C273.95 25.9609 273.987 25.6016 274.061 25.2656C274.139 24.9297 274.259 24.6328 274.419 24.375C274.579 24.1133 274.782 23.9102 275.028 23.7656C275.278 23.6172 275.575 23.543 275.919 23.543C275.997 23.543 276.087 23.5527 276.188 23.5723C276.29 23.5879 276.36 23.6055 276.399 23.625ZM276.692 29.4258C276.692 29.2422 276.749 29.0879 276.862 28.9629C276.979 28.834 277.147 28.7695 277.366 28.7695C277.585 28.7695 277.751 28.834 277.864 28.9629C277.981 29.0879 278.04 29.2422 278.04 29.4258C278.04 29.6055 277.981 29.7578 277.864 29.8828C277.751 30.0078 277.585 30.0703 277.366 30.0703C277.147 30.0703 276.979 30.0078 276.862 29.8828C276.749 29.7578 276.692 29.6055 276.692 29.4258ZM283.577 28.916V25.6523C283.577 25.4023 283.526 25.1855 283.425 25.002C283.327 24.8145 283.178 24.6699 282.979 24.5684C282.78 24.4668 282.534 24.416 282.241 24.416C281.968 24.416 281.727 24.4629 281.52 24.5566C281.317 24.6504 281.157 24.7734 281.04 24.9258C280.927 25.0781 280.87 25.2422 280.87 25.418H279.786C279.786 25.1914 279.844 24.9668 279.962 24.7441C280.079 24.5215 280.247 24.3203 280.466 24.1406C280.688 23.957 280.954 23.8125 281.262 23.707C281.575 23.5977 281.923 23.543 282.305 23.543C282.766 23.543 283.173 23.6211 283.524 23.7773C283.88 23.9336 284.157 24.1699 284.356 24.4863C284.559 24.7988 284.661 25.1914 284.661 25.6641V28.6172C284.661 28.8281 284.678 29.0527 284.714 29.291C284.753 29.5293 284.809 29.7344 284.884 29.9062V30H283.753C283.698 29.875 283.655 29.709 283.624 29.502C283.593 29.291 283.577 29.0957 283.577 28.916ZM283.764 26.1562L283.776 26.918H282.68C282.372 26.918 282.096 26.9434 281.854 26.9941C281.612 27.041 281.409 27.1133 281.245 27.2109C281.081 27.3086 280.956 27.4316 280.87 27.5801C280.784 27.7246 280.741 27.8945 280.741 28.0898C280.741 28.2891 280.786 28.4707 280.876 28.6348C280.966 28.7988 281.1 28.9297 281.28 29.0273C281.464 29.1211 281.688 29.168 281.954 29.168C282.286 29.168 282.579 29.0977 282.833 28.957C283.087 28.8164 283.288 28.6445 283.436 28.4414C283.589 28.2383 283.671 28.041 283.682 27.8496L284.145 28.3711C284.118 28.5352 284.044 28.7168 283.923 28.916C283.802 29.1152 283.639 29.3066 283.436 29.4902C283.237 29.6699 282.999 29.8203 282.721 29.9414C282.448 30.0586 282.139 30.1172 281.796 30.1172C281.366 30.1172 280.989 30.0332 280.665 29.8652C280.344 29.6973 280.094 29.4727 279.915 29.1914C279.739 28.9062 279.651 28.5879 279.651 28.2363C279.651 27.8965 279.718 27.5977 279.85 27.3398C279.983 27.0781 280.175 26.8613 280.425 26.6895C280.675 26.5137 280.975 26.3809 281.327 26.291C281.678 26.2012 282.071 26.1562 282.505 26.1562H283.764ZM287.45 24.8789V32.4375H286.36V23.6602H287.356L287.45 24.8789ZM291.721 26.7773V26.9004C291.721 27.3613 291.667 27.7891 291.557 28.1836C291.448 28.5742 291.288 28.9141 291.077 29.2031C290.87 29.4922 290.614 29.7168 290.309 29.877C290.005 30.0371 289.655 30.1172 289.26 30.1172C288.858 30.1172 288.503 30.0508 288.194 29.918C287.885 29.7852 287.624 29.5918 287.409 29.3379C287.194 29.084 287.022 28.7793 286.893 28.4238C286.768 28.0684 286.682 27.668 286.635 27.2227V26.5664C286.682 26.0977 286.77 25.6777 286.899 25.3066C287.028 24.9355 287.198 24.6191 287.409 24.3574C287.624 24.0918 287.884 23.8906 288.188 23.7539C288.493 23.6133 288.844 23.543 289.243 23.543C289.641 23.543 289.995 23.6211 290.303 23.7773C290.612 23.9297 290.872 24.1484 291.083 24.4336C291.294 24.7188 291.452 25.0605 291.557 25.459C291.667 25.8535 291.721 26.293 291.721 26.7773ZM290.632 26.9004V26.7773C290.632 26.4609 290.598 26.1641 290.532 25.8867C290.466 25.6055 290.362 25.3594 290.221 25.1484C290.085 24.9336 289.909 24.7656 289.694 24.6445C289.479 24.5195 289.223 24.457 288.927 24.457C288.653 24.457 288.415 24.5039 288.212 24.5977C288.012 24.6914 287.843 24.8184 287.702 24.9785C287.561 25.1348 287.446 25.3145 287.356 25.5176C287.27 25.7168 287.206 25.9238 287.163 26.1387V27.6562C287.241 27.9297 287.35 28.1875 287.491 28.4297C287.632 28.668 287.819 28.8613 288.053 29.0098C288.288 29.1543 288.583 29.2266 288.938 29.2266C289.231 29.2266 289.483 29.166 289.694 29.0449C289.909 28.9199 290.085 28.75 290.221 28.5352C290.362 28.3203 290.466 28.0742 290.532 27.7969C290.598 27.5156 290.632 27.2168 290.632 26.9004ZM294.188 24.8789V32.4375H293.098V23.6602H294.094L294.188 24.8789ZM298.46 26.7773V26.9004C298.46 27.3613 298.405 27.7891 298.296 28.1836C298.186 28.5742 298.026 28.9141 297.815 29.2031C297.608 29.4922 297.352 29.7168 297.048 29.877C296.743 30.0371 296.393 30.1172 295.999 30.1172C295.596 30.1172 295.241 30.0508 294.932 29.918C294.624 29.7852 294.362 29.5918 294.147 29.3379C293.932 29.084 293.76 28.7793 293.632 28.4238C293.507 28.0684 293.421 27.668 293.374 27.2227V26.5664C293.421 26.0977 293.509 25.6777 293.637 25.3066C293.766 24.9355 293.936 24.6191 294.147 24.3574C294.362 24.0918 294.622 23.8906 294.927 23.7539C295.231 23.6133 295.583 23.543 295.981 23.543C296.38 23.543 296.733 23.6211 297.042 23.7773C297.35 23.9297 297.61 24.1484 297.821 24.4336C298.032 24.7188 298.19 25.0605 298.296 25.459C298.405 25.8535 298.46 26.293 298.46 26.7773ZM297.37 26.9004V26.7773C297.37 26.4609 297.337 26.1641 297.27 25.8867C297.204 25.6055 297.1 25.3594 296.96 25.1484C296.823 24.9336 296.647 24.7656 296.432 24.6445C296.218 24.5195 295.962 24.457 295.665 24.457C295.391 24.457 295.153 24.5039 294.95 24.5977C294.751 24.6914 294.581 24.8184 294.44 24.9785C294.3 25.1348 294.184 25.3145 294.094 25.5176C294.009 25.7168 293.944 25.9238 293.901 26.1387V27.6562C293.979 27.9297 294.089 28.1875 294.229 28.4297C294.37 28.668 294.557 28.8613 294.792 29.0098C295.026 29.1543 295.321 29.2266 295.677 29.2266C295.969 29.2266 296.221 29.166 296.432 29.0449C296.647 28.9199 296.823 28.75 296.96 28.5352C297.1 28.3203 297.204 28.0742 297.27 27.7969C297.337 27.5156 297.37 27.2168 297.37 26.9004Z" fill="#94A3B8"/>
<rect x="5" y="46" width="552" height="333" fill="#DBEAFE"/>
<path d="M5 46.444H97.4623V379H5V46.444Z" fill="#BFDBFE"/>
<path d="M16.0955 77.968C16.0955 75.0254 18.5793 72.64 21.6432 72.64H80.8191C83.883 72.64 86.3668 75.0254 86.3668 77.968C86.3668 80.9106 83.883 83.296 80.8191 83.296H21.6432C18.5793 83.296 16.0955 80.9106 16.0955 77.968Z" fill="#93C5FD"/>
<path d="M38.2864 115.264C38.2864 113.793 39.5283 112.6 41.0603 112.6H87.2915C88.8234 112.6 90.0653 113.793 90.0653 115.264C90.0653 116.735 88.8234 117.928 87.2915 117.928H41.0603C39.5283 117.928 38.2864 116.735 38.2864 115.264Z" fill="white"/>
<path d="M38.2864 143.68C38.2864 142.209 39.5283 141.016 41.0603 141.016H72.9598C74.4918 141.016 75.7337 142.209 75.7337 143.68C75.7337 145.151 74.4918 146.344 72.9598 146.344H41.0603C39.5283 146.344 38.2864 145.151 38.2864 143.68Z" fill="white"/>
<path d="M38.2864 172.096C38.2864 170.625 39.5283 169.432 41.0603 169.432H80.8191C82.3511 169.432 83.593 170.625 83.593 172.096C83.593 173.567 82.3511 174.76 80.8191 174.76H41.0603C39.5283 174.76 38.2864 173.567 38.2864 172.096Z" fill="white"/>
<path fill-rule="evenodd" clip-rule="evenodd" d="M23.4924 121.036C26.8117 121.036 29.5025 118.452 29.5025 115.264C29.5025 112.076 26.8117 109.492 23.4924 109.492C20.1732 109.492 17.4824 112.076 17.4824 115.264C17.4824 118.452 20.1732 121.036 23.4924 121.036ZM23.4924 122.368C27.5777 122.368 30.8894 119.187 30.8894 115.264C30.8894 111.341 27.5777 108.16 23.4924 108.16C19.4072 108.16 16.0955 111.341 16.0955 115.264C16.0955 119.187 19.4072 122.368 23.4924 122.368Z" fill="#93C5FD"/>
<path d="M127.05 77.968C127.05 76.0063 128.706 74.416 130.749 74.416H184.377C186.419 74.416 188.075 76.0063 188.075 77.968C188.075 79.9297 186.419 81.52 184.377 81.52H130.749C128.706 81.52 127.05 79.9297 127.05 77.968Z" fill="#BFDBFE"/>
<path fill-rule="evenodd" clip-rule="evenodd" d="M225.291 221.185C225.319 218.652 227.413 216.496 230.106 216.496C231.759 216.496 232.974 217.282 233.75 218.021C233.966 218.227 234.151 218.433 234.307 218.622C234.462 218.433 234.647 218.227 234.863 218.021C235.639 217.282 236.855 216.496 238.507 216.496C241.2 216.496 243.295 218.652 243.322 221.185L243.322 221.185C243.373 226.124 239.24 229.541 235.087 232.249C234.857 232.4 234.585 232.48 234.307 232.48C234.028 232.48 233.756 232.4 233.526 232.249C229.372 229.541 225.24 226.124 225.291 221.185L225.291 221.185ZM234.926 220.125C234.808 220.35 234.569 220.492 234.307 220.492C234.045 220.492 233.805 220.35 233.687 220.126C233.687 220.125 233.687 220.125 233.686 220.124C233.685 220.122 233.684 220.12 233.682 220.116C233.681 220.114 233.68 220.112 233.679 220.11C233.671 220.096 233.658 220.073 233.64 220.042C233.603 219.981 233.547 219.891 233.47 219.78C233.315 219.558 233.082 219.261 232.773 218.967C232.152 218.374 231.267 217.828 230.106 217.828C228.225 217.828 226.698 219.346 226.678 221.198M234.926 220.125C234.926 220.125 234.926 220.125 234.927 220.124C234.928 220.122 234.931 220.117 234.935 220.11C234.942 220.096 234.955 220.073 234.973 220.042C235.01 219.981 235.067 219.891 235.144 219.78C235.298 219.558 235.531 219.261 235.84 218.967C236.461 218.374 237.346 217.828 238.507 217.828C240.388 217.828 241.915 219.346 241.935 221.198C241.978 225.361 238.497 228.416 234.307 231.148L234.307 231.148L234.306 231.148C230.115 228.416 226.635 225.361 226.678 221.199" fill="white"/>
<path d="M127.05 224.488C127.05 222.526 128.706 220.936 130.749 220.936H155.714C157.756 220.936 159.412 222.526 159.412 224.488C159.412 226.45 157.756 228.04 155.714 228.04H130.749C128.706 228.04 127.05 226.45 127.05 224.488Z" fill="#BFDBFE"/>
<path d="M166.809 224.488C166.809 222.526 168.465 220.936 170.508 220.936H212.116C214.158 220.936 215.814 222.526 215.814 224.488C215.814 226.45 214.158 228.04 212.116 228.04H170.508C168.465 228.04 166.809 226.45 166.809 224.488Z" fill="#BFDBFE"/>
<path d="M127.05 259.12C127.05 257.649 128.292 256.456 129.824 256.456H168.658C170.19 256.456 171.432 257.649 171.432 259.12C171.432 260.591 170.19 261.784 168.658 261.784H129.824C128.292 261.784 127.05 260.591 127.05 259.12Z" fill="white"/>
<path d="M127.05 271.552C127.05 270.081 128.292 268.888 129.824 268.888H189.462C190.994 268.888 192.236 270.081 192.236 271.552C192.236 273.023 190.994 274.216 189.462 274.216H129.824C128.292 274.216 127.05 273.023 127.05 271.552Z" fill="white"/>
<path d="M178.829 259.12C178.829 257.649 180.071 256.456 181.603 256.456H227.834C229.366 256.456 230.608 257.649 230.608 259.12C230.608 260.591 229.366 261.784 227.834 261.784H181.603C180.071 261.784 178.829 260.591 178.829 259.12Z" fill="white"/>
<path d="M127.05 112.6C127.05 111.129 128.292 109.936 129.824 109.936H168.658C170.19 109.936 171.432 111.129 171.432 112.6C171.432 114.071 170.19 115.264 168.658 115.264H129.824C128.292 115.264 127.05 114.071 127.05 112.6Z" fill="white"/>
<path d="M127.05 125.032C127.05 123.561 128.292 122.368 129.824 122.368H225.523C227.055 122.368 228.296 123.561 228.296 125.032C228.296 126.503 227.055 127.696 225.523 127.696H129.824C128.292 127.696 127.05 126.503 127.05 125.032Z" fill="white"/>
<path d="M178.829 112.6C178.829 111.129 180.071 109.936 181.603 109.936H287.01C288.542 109.936 289.784 111.129 289.784 112.6C289.784 114.071 288.542 115.264 287.01 115.264H181.603C180.071 115.264 178.829 114.071 178.829 112.6Z" fill="white"/>
<path fill-rule="evenodd" clip-rule="evenodd" d="M29.9648 137.908H17.9447V149.452H29.9648V137.908ZM16.5578 136.576V150.784H31.3518V136.576H16.5578Z" fill="#60A5FA"/>
<g clip-path="url(#clip1_0_972)">
<rect x="325.382" y="77.968" width="92.4623" height="121.656" rx="20" fill="white"/>
<path d="M386.974 199.729C386.974 230.514 361.204 255.47 329.415 255.47C297.626 255.47 271.856 230.514 271.856 199.729C271.856 168.944 297.626 143.989 329.415 143.989C361.204 143.989 386.974 168.944 386.974 199.729Z" fill="#FACC15"/>
<path fill-rule="evenodd" clip-rule="evenodd" d="M430.68 125.348L400.605 96.4636L370.53 125.348L400.605 154.231L430.68 125.348ZM400.605 93.952L367.915 125.348L400.605 156.743L433.295 125.348L400.605 93.952Z" fill="#BFDBFE"/>
</g>
<path d="M23.9548 165.88L31.3518 178.184H16.5578L23.9548 165.88Z" fill="#93C5FD"/>
<rect x="432.638" y="77.968" width="92.4623" height="89.688" rx="20" fill="white"/>
<path fill-rule="evenodd" clip-rule="evenodd" d="M474.231 144.842C483.45 144.842 490.86 137.731 490.86 129.034C490.86 120.337 483.45 113.226 474.231 113.226C465.013 113.226 457.603 120.337 457.603 129.034C457.603 137.731 465.013 144.842 474.231 144.842ZM474.231 149.282C485.968 149.282 495.483 140.217 495.483 129.034C495.483 117.851 485.968 108.786 474.231 108.786C462.495 108.786 452.98 117.851 452.98 129.034C452.98 140.217 462.495 149.282 474.231 149.282Z" fill="#BFDBFE"/>
<path d="M483.89 122.625L490.004 100.712L506.707 116.753L483.89 122.625Z" fill="#FACC15"/>
<g clip-path="url(#clip2_0_972)">
<rect x="325.382" y="213.832" width="92.4623" height="135.864" rx="20" fill="white"/>
<path fill-rule="evenodd" clip-rule="evenodd" d="M412.065 367.012C437.981 367.012 458.99 346.835 458.99 321.946C458.99 297.057 437.981 276.88 412.065 276.88C386.15 276.88 365.141 297.057 365.141 321.946C365.141 346.835 386.15 367.012 412.065 367.012ZM412.065 371.452C440.534 371.452 463.613 349.287 463.613 321.946C463.613 294.605 440.534 272.44 412.065 272.44C383.596 272.44 360.518 294.605 360.518 321.946C360.518 349.287 383.596 371.452 412.065 371.452Z" fill="#FACC15"/>
<path d="M373.925 254.337C373.925 262.729 366.784 269.533 357.975 269.533C349.166 269.533 342.025 262.729 342.025 254.337C342.025 245.944 349.166 239.14 357.975 239.14C366.784 239.14 373.925 245.944 373.925 254.337Z" fill="#BFDBFE"/>
<path fill-rule="evenodd" clip-rule="evenodd" d="M357.975 268.201C366.028 268.201 372.538 261.984 372.538 254.337C372.538 246.689 366.028 240.472 357.975 240.472C349.922 240.472 343.412 246.689 343.412 254.337C343.412 261.984 349.922 268.201 357.975 268.201ZM357.975 269.533C366.784 269.533 373.925 262.729 373.925 254.337C373.925 245.944 366.784 239.14 357.975 239.14C349.166 239.14 342.025 245.944 342.025 254.337C342.025 262.729 349.166 269.533 357.975 269.533Z" fill="#BFDBFE"/>
</g>
<g clip-path="url(#clip3_0_972)">
<rect x="432.638" y="181.864" width="92.4623" height="151.848" rx="20" fill="white"/>
<path d="M546.367 291.31C546.367 302.222 537.26 311.068 526.025 311.068C514.791 311.068 505.683 302.222 505.683 291.31C505.683 280.398 514.791 271.552 526.025 271.552C537.26 271.552 546.367 280.398 546.367 291.31Z" fill="white"/>
<path fill-rule="evenodd" clip-rule="evenodd" d="M526.025 309.736C536.479 309.736 544.98 301.501 544.98 291.31C544.98 281.119 536.479 272.884 526.025 272.884C515.571 272.884 507.07 281.119 507.07 291.31C507.07 301.501 515.571 309.736 526.025 309.736ZM526.025 311.068C537.26 311.068 546.367 302.222 546.367 291.31C546.367 280.398 537.26 271.552 526.025 271.552C514.791 271.552 505.683 280.398 505.683 291.31C505.683 302.222 514.791 311.068 526.025 311.068Z" fill="#BFDBFE"/>
<path d="M509.382 235.366C509.382 249.956 497.17 261.784 482.106 261.784C467.041 261.784 454.829 249.956 454.829 235.366C454.829 220.776 467.041 208.948 482.106 208.948C497.17 208.948 509.382 220.776 509.382 235.366Z" fill="#BFDBFE"/>
<path d="M449.744 286.204L451.048 289.808L455.02 289.886L451.854 292.191L453.005 295.842L449.744 293.663L446.483 295.842L447.633 292.191L444.467 289.886L448.439 289.808L449.744 286.204Z" fill="#FACC15"/>
<path d="M468.698 286.204L470.003 289.808L473.975 289.886L470.809 292.191L471.959 295.842L468.698 293.663L465.438 295.842L466.588 292.191L463.422 289.886L467.394 289.808L468.698 286.204Z" fill="#FACC15"/>
<path d="M487.653 286.204L488.958 289.808L492.929 289.886L489.764 292.191L490.914 295.842L487.653 293.663L484.392 295.842L485.543 292.191L482.377 289.886L486.349 289.808L487.653 286.204Z" fill="#FACC15"/>
<path d="M506.608 286.204L507.912 289.808L511.884 289.886L508.719 292.191L509.869 295.842L506.608 293.663L503.347 295.842L504.498 292.191L501.332 289.886L505.304 289.808L506.608 286.204Z" fill="#FACC15"/>
<path d="M525.563 286.204L526.867 289.808L530.839 289.886L527.673 292.191L528.824 295.842L525.563 293.663L522.302 295.842L523.452 292.191L520.287 289.886L524.258 289.808L525.563 286.204Z" fill="#FACC15"/>
</g>
</g>
<rect x="2.5" y="2.5" width="557" height="379" rx="22.5" stroke="#4C1D95" stroke-width="5"/>
<defs>
<clipPath id="clip0_0_972">
<rect x="5" y="5" width="552" height="374" rx="20" fill="white"/>
</clipPath>
<clipPath id="clip1_0_972">
<rect x="325.382" y="77.968" width="92.4623" height="121.656" rx="20" fill="white"/>
</clipPath>
<clipPath id="clip2_0_972">
<rect x="325.382" y="213.832" width="92.4623" height="135.864" rx="20" fill="white"/>
</clipPath>
<clipPath id="clip3_0_972">
<rect x="432.638" y="181.864" width="92.4623" height="151.848" rx="20" fill="white"/>
</clipPath>
</defs>
</svg>
