<svg width="96" height="96" viewBox="0 0 96 96" fill="none" xmlns="http://www.w3.org/2000/svg">
<rect width="96" height="96" rx="48" fill="#D1FAE5"/>
<path fill-rule="evenodd" clip-rule="evenodd" d="M40.5084 24.6278C41.7897 24.0925 43.1645 23.8169 44.5531 23.8169C45.9417 23.8169 47.3165 24.0925 48.5978 24.6278C49.8791 25.1631 51.0414 25.9474 52.0173 26.9352C52.9932 27.9231 53.7634 29.0948 54.2831 30.3825C54.8013 31.6664 55.0602 33.0402 55.045 34.4246L55.0287 57.9977L55.0285 58.0128C54.9994 59.8525 54.2482 61.6071 52.9369 62.8979C51.6256 64.1886 49.8594 64.912 48.0194 64.912C46.1794 64.912 44.4132 64.1886 43.1019 62.8979C41.7906 61.6071 41.0393 59.8525 41.0102 58.0128L41.01 57.997V39.9999C41.01 38.8954 41.9054 37.9999 43.01 37.9999C44.1146 37.9999 45.01 38.8954 45.01 39.9999V57.9634C45.026 58.7483 45.3481 59.4962 45.9079 60.0472C46.4709 60.6014 47.2293 60.912 48.0194 60.912C48.8094 60.912 49.5678 60.6014 50.1309 60.0472C50.6908 59.496 51.0129 58.748 51.0288 57.9628L51.045 34.3996L51.0451 34.3882C51.0556 33.529 50.8953 32.6763 50.5738 31.8795C50.2522 31.0827 49.7757 30.3577 49.1718 29.7464C48.5679 29.1352 47.8487 28.6499 47.0559 28.3187C46.263 27.9874 45.4124 27.8169 44.5531 27.8169C43.6939 27.8169 42.8432 27.9874 42.0504 28.3187C41.2575 28.6499 40.5383 29.1352 39.9345 29.7464C39.3306 30.3577 38.8541 31.0827 38.5325 31.8795C38.2109 32.6763 38.0507 33.529 38.0611 34.3882L38.0612 34.4003V58.1544L38.061 58.1689C38.042 59.486 38.2849 60.7938 38.7758 62.0162C39.2667 63.2386 39.9956 64.3512 40.9203 65.2894C41.845 66.2276 42.947 66.9726 44.1622 67.4811C45.3773 67.9896 46.6815 68.2514 47.9987 68.2514C49.316 68.2514 50.6202 67.9896 51.8353 67.4811C53.0505 66.9726 54.1525 66.2276 55.0772 65.2894C56.0019 64.3512 56.7308 63.2386 57.2217 62.0162C57.7126 60.7938 57.9555 59.486 57.9365 58.1689L57.9362 58.1544V35.9674C57.9362 34.8629 58.8317 33.9674 59.9362 33.9674C61.0408 33.9674 61.9362 34.8629 61.9362 35.9674V58.126C61.9609 59.9682 61.6202 61.797 60.9336 63.5067C60.2452 65.2211 59.2228 66.7815 57.926 68.0973C56.6291 69.413 55.0837 70.4579 53.3794 71.171C51.6752 71.8842 49.8462 72.2514 47.9987 72.2514C46.1513 72.2514 44.3223 71.8842 42.6181 71.171C40.9138 70.4579 39.3684 69.413 38.0715 68.0973C36.7747 66.7815 35.7523 65.2211 35.0639 63.5067C34.3773 61.797 34.0366 59.9682 34.0612 58.126V34.4239C34.0461 33.0397 34.3051 31.6662 34.8232 30.3825C35.3429 29.0948 36.113 27.9231 37.0889 26.9352C38.0649 25.9474 39.2271 25.1631 40.5084 24.6278Z" fill="#059669"/>
</svg>
