<svg width="87" height="24" viewBox="0 0 87 24" fill="none" xmlns="http://www.w3.org/2000/svg">
<path d="M6.57812 13.125L10.0938 0.59375H12.9531L12.0312 5.51562L8.51562 17.5H6.125L6.57812 13.125ZM4.79688 0.59375L7.3125 13.1094L7.54688 17.5H4.73438L0.453125 0.59375H4.79688ZM16.1719 12.9062L18.625 0.59375H22.9844L18.7031 17.5H15.9062L16.1719 12.9062ZM13.3438 0.59375L16.8438 13.0312L17.3281 17.5H14.9219L11.4062 5.53125L10.5156 0.59375H13.3438ZM76.0625 3.84375V24H71.5625V0.59375H75.7344L76.0625 3.84375ZM86.7656 8.85938V9.1875C86.7656 10.4167 86.6198 11.5573 86.3281 12.6094C86.0469 13.6615 85.6302 14.5781 85.0781 15.3594C84.526 16.1302 83.8385 16.7344 83.0156 17.1719C82.2031 17.599 81.2656 17.8125 80.2031 17.8125C79.1719 17.8125 78.276 17.6042 77.5156 17.1875C76.7552 16.7708 76.1146 16.1875 75.5938 15.4375C75.0833 14.6771 74.6719 13.7969 74.3594 12.7969C74.0469 11.7969 73.8073 10.724 73.6406 9.57812V8.71875C73.8073 7.48958 74.0469 6.36458 74.3594 5.34375C74.6719 4.3125 75.0833 3.42188 75.5938 2.67188C76.1146 1.91146 76.75 1.32292 77.5 0.90625C78.2604 0.489583 79.151 0.28125 80.1719 0.28125C81.2448 0.28125 82.1875 0.484375 83 0.890625C83.8229 1.29688 84.5104 1.88021 85.0625 2.64062C85.625 3.40104 86.0469 4.30729 86.3281 5.35938C86.6198 6.41146 86.7656 7.57812 86.7656 8.85938ZM82.25 9.1875V8.85938C82.25 8.14062 82.1875 7.47917 82.0625 6.875C81.9479 6.26042 81.7604 5.72396 81.5 5.26562C81.25 4.80729 80.9167 4.45312 80.5 4.20312C80.0938 3.94271 79.599 3.8125 79.0156 3.8125C78.401 3.8125 77.875 3.91146 77.4375 4.10938C77.0104 4.30729 76.6615 4.59375 76.3906 4.96875C76.1198 5.34375 75.9167 5.79167 75.7812 6.3125C75.6458 6.83333 75.5625 7.42188 75.5312 8.07812V10.25C75.5833 11.0208 75.7292 11.7135 75.9688 12.3281C76.2083 12.9323 76.5781 13.4115 77.0781 13.7656C77.5781 14.1198 78.2344 14.2969 79.0469 14.2969C79.6406 14.2969 80.1406 14.1667 80.5469 13.9062C80.9531 13.6354 81.2812 13.2656 81.5312 12.7969C81.7917 12.3281 81.974 11.7865 82.0781 11.1719C82.1927 10.5573 82.25 9.89583 82.25 9.1875Z" fill="#4C1D95"/>
<path d="M29.75 4.28125V17.5H25.25V0.59375H29.4844L29.75 4.28125ZM34.8438 0.484375L34.7656 4.65625C34.5469 4.625 34.2812 4.59896 33.9688 4.57812C33.6667 4.54688 33.3906 4.53125 33.1406 4.53125C32.5052 4.53125 31.9531 4.61458 31.4844 4.78125C31.026 4.9375 30.6406 5.17188 30.3281 5.48438C30.026 5.79688 29.7969 6.17708 29.6406 6.625C29.4948 7.07292 29.4115 7.58333 29.3906 8.15625L28.4844 7.875C28.4844 6.78125 28.5938 5.77604 28.8125 4.85938C29.0312 3.93229 29.349 3.125 29.7656 2.4375C30.1927 1.75 30.7135 1.21875 31.3281 0.84375C31.9427 0.46875 32.6458 0.28125 33.4375 0.28125C33.6875 0.28125 33.9427 0.302083 34.2031 0.34375C34.4635 0.375 34.6771 0.421875 34.8438 0.484375ZM45.5625 13.6875V6.15625C45.5625 5.61458 45.474 5.15104 45.2969 4.76562C45.1198 4.36979 44.8438 4.0625 44.4688 3.84375C44.1042 3.625 43.6302 3.51562 43.0469 3.51562C42.5469 3.51562 42.1146 3.60417 41.75 3.78125C41.3854 3.94792 41.1042 4.19271 40.9062 4.51562C40.7083 4.82812 40.6094 5.19792 40.6094 5.625H36.1094C36.1094 4.90625 36.276 4.22396 36.6094 3.57812C36.9427 2.93229 37.4271 2.36458 38.0625 1.875C38.6979 1.375 39.4531 0.984375 40.3281 0.703125C41.2135 0.421875 42.2031 0.28125 43.2969 0.28125C44.6094 0.28125 45.776 0.5 46.7969 0.9375C47.8177 1.375 48.6198 2.03125 49.2031 2.90625C49.7969 3.78125 50.0938 4.875 50.0938 6.1875V13.4219C50.0938 14.349 50.151 15.1094 50.2656 15.7031C50.3802 16.2865 50.5469 16.7969 50.7656 17.2344V17.5H46.2188C46 17.0417 45.8333 16.4688 45.7188 15.7812C45.6146 15.0833 45.5625 14.3854 45.5625 13.6875ZM46.1562 7.20312L46.1875 9.75H43.6719C43.0781 9.75 42.5625 9.81771 42.125 9.95312C41.6875 10.0885 41.3281 10.2812 41.0469 10.5312C40.7656 10.7708 40.5573 11.0521 40.4219 11.375C40.2969 11.6979 40.2344 12.0521 40.2344 12.4375C40.2344 12.8229 40.3229 13.1719 40.5 13.4844C40.6771 13.7865 40.9323 14.026 41.2656 14.2031C41.599 14.3698 41.9896 14.4531 42.4375 14.4531C43.1146 14.4531 43.7031 14.3177 44.2031 14.0469C44.7031 13.776 45.0885 13.4427 45.3594 13.0469C45.6406 12.651 45.7865 12.276 45.7969 11.9219L46.9844 13.8281C46.8177 14.2552 46.5885 14.6979 46.2969 15.1562C46.0156 15.6146 45.6562 16.0469 45.2188 16.4531C44.7812 16.849 44.2552 17.1771 43.6406 17.4375C43.026 17.6875 42.2969 17.8125 41.4531 17.8125C40.3802 17.8125 39.4062 17.599 38.5312 17.1719C37.6667 16.7344 36.9792 16.1354 36.4688 15.375C35.9688 14.6042 35.7188 13.7292 35.7188 12.75C35.7188 11.8646 35.8854 11.0781 36.2188 10.3906C36.5521 9.70312 37.0417 9.125 37.6875 8.65625C38.3438 8.17708 39.1615 7.81771 40.1406 7.57812C41.1198 7.32812 42.2552 7.20312 43.5469 7.20312H46.1562ZM58.0625 3.84375V24H53.5625V0.59375H57.7344L58.0625 3.84375ZM68.7656 8.85938V9.1875C68.7656 10.4167 68.6198 11.5573 68.3281 12.6094C68.0469 13.6615 67.6302 14.5781 67.0781 15.3594C66.526 16.1302 65.8385 16.7344 65.0156 17.1719C64.2031 17.599 63.2656 17.8125 62.2031 17.8125C61.1719 17.8125 60.276 17.6042 59.5156 17.1875C58.7552 16.7708 58.1146 16.1875 57.5938 15.4375C57.0833 14.6771 56.6719 13.7969 56.3594 12.7969C56.0469 11.7969 55.8073 10.724 55.6406 9.57812V8.71875C55.8073 7.48958 56.0469 6.36458 56.3594 5.34375C56.6719 4.3125 57.0833 3.42188 57.5938 2.67188C58.1146 1.91146 58.75 1.32292 59.5 0.90625C60.2604 0.489583 61.151 0.28125 62.1719 0.28125C63.2448 0.28125 64.1875 0.484375 65 0.890625C65.8229 1.29688 66.5104 1.88021 67.0625 2.64062C67.625 3.40104 68.0469 4.30729 68.3281 5.35938C68.6198 6.41146 68.7656 7.57812 68.7656 8.85938ZM64.25 9.1875V8.85938C64.25 8.14062 64.1875 7.47917 64.0625 6.875C63.9479 6.26042 63.7604 5.72396 63.5 5.26562C63.25 4.80729 62.9167 4.45312 62.5 4.20312C62.0938 3.94271 61.599 3.8125 61.0156 3.8125C60.401 3.8125 59.875 3.91146 59.4375 4.10938C59.0104 4.30729 58.6615 4.59375 58.3906 4.96875C58.1198 5.34375 57.9167 5.79167 57.7812 6.3125C57.6458 6.83333 57.5625 7.42188 57.5312 8.07812V10.25C57.5833 11.0208 57.7292 11.7135 57.9688 12.3281C58.2083 12.9323 58.5781 13.4115 59.0781 13.7656C59.5781 14.1198 60.2344 14.2969 61.0469 14.2969C61.6406 14.2969 62.1406 14.1667 62.5469 13.9062C62.9531 13.6354 63.2812 13.2656 63.5312 12.7969C63.7917 12.3281 63.974 11.7865 64.0781 11.1719C64.1927 10.5573 64.25 9.89583 64.25 9.1875Z" fill="#7C3AED"/>
</svg>
