<svg width="16" height="18" viewBox="0 0 16 18" fill="none" xmlns="http://www.w3.org/2000/svg">
<path d="M13.82 9.523C13.8902 9.4128 13.9375 9.28963 13.9592 9.16079C13.9809 9.03195 13.9766 8.90007 13.9463 8.77296C13.9161 8.64585 13.8607 8.5261 13.7833 8.4208C13.706 8.31551 13.6083 8.22683 13.496 8.16L3.574 2.128C3.41265 2.03033 3.22761 1.9788 3.039 1.979C2.479 1.979 2.026 2.422 2.026 2.969V15.03C2.026 15.215 2.079 15.396 2.179 15.553C2.475 16.017 3.099 16.159 3.574 15.87L13.496 9.839C13.627 9.759 13.739 9.65 13.821 9.522L13.82 9.523ZM14.566 11.52L4.645 17.551C3.22 18.418 1.345 17.991 0.459 16.6C0.159449 16.1311 0.000190848 15.5864 0 15.03L0 2.97C0 1.329 1.36 0 3.04 0C3.607 0 4.163 0.155 4.645 0.448L14.566 6.48C15.991 7.346 16.428 9.176 15.541 10.568C15.295 10.954 14.961 11.28 14.566 11.52Z" fill="#7C3AED"/>
</svg>
